<?xml version="1.0" encoding="UTF-8" standalone="no"?>
<!-- Created with Inkscape (http://www.inkscape.org/) -->
<svg xmlns:dc="http://purl.org/dc/elements/1.1/" xmlns:cc="http://web.resource.org/cc/" xmlns:rdf="http://www.w3.org/1999/02/22-rdf-syntax-ns#" xmlns:svg="http://www.w3.org/2000/svg" xmlns="http://www.w3.org/2000/svg" xmlns:sodipodi="http://sodipodi.sourceforge.net/DTD/sodipodi-0.dtd" xmlns:inkscape="http://www.inkscape.org/namespaces/inkscape" id="svg2" sodipodi:version="0.32" inkscape:version="0.44+devel" width="400" height="142" version="1.0" sodipodi:docbase="C:\Documents and Settings\Molumen\Desktop\redraw and submit to openclipart" sodipodi:docname="lemon shark.jpg" sodipodi:modified="true">
  <defs id="defs5"/>
  <sodipodi:namedview inkscape:window-height="569" inkscape:window-width="739" inkscape:pageshadow="2" inkscape:pageopacity="0.0" guidetolerance="10.0" gridtolerance="10.0" objecttolerance="10.0" borderopacity="1.0" bordercolor="#666666" pagecolor="#ffffff" id="base" inkscape:zoom="1.1561196" inkscape:cx="177.4526" inkscape:cy="52.527595" inkscape:window-x="43" inkscape:window-y="507" inkscape:current-layer="svg2"/>
  <path style="fill:#000000" d="M 116.21531,127.95926 C 109.21213,121.4086 102.70309,111.17098 97.823839,99.03258 C 95.529399,93.32454 93.459419,88.46935 93.223879,88.24328 C 92.988349,88.0172 84.470639,87.31299 74.295639,86.67837 C 54.805346,85.46275 38.295639,83.07338 38.295639,81.46827 C 38.295639,80.94295 37.939349,80.73334 37.503883,81.00247 C 36.714383,81.49041 21.940106,76.58163 18.243051,74.60303 C 17.171975,74.02981 16.295639,72.74638 16.295639,71.75098 C 16.295639,65.66593 35.080271,58.71759 84.241311,46.6182 C 101.30341,42.418923 116.23442,39.808496 130.29564,38.566403 C 144.21539,37.336807 141.81121,38.405233 163.13999,23.970246 C 172.54857,17.602663 180.74964,14.100688 183.64817,15.212958 C 185.52417,15.932846 185.92767,17.416335 186.73507,26.562174 C 187.42212,34.344669 189.13927,37.202943 194.6236,39.693006 C 199.22556,41.782448 199.16793,41.8183 191.29564,41.763151 C 185.7229,41.724112 185.83641,41.751901 231.29564,51.55604 C 243.67414,54.2257 244.78941,54.16549 251.29564,50.47634 C 254.32064,48.76112 259.04564,46.08157 261.79564,44.5218 C 264.54564,42.96202 269.17842,41.147399 272.09071,40.489295 C 276.65221,39.45851 277.6046,39.511563 278.96528,40.872243 C 280.40462,42.311578 280.40062,42.87485 278.92021,47.2196 C 275.78872,56.41002 277.09561,60.02254 284.99598,64.0142 C 288.94358,66.00873 297.15265,66.12006 299.87117,64.21593 C 302.21366,62.57518 319.7762,56.33878 328.20517,54.15462 C 335.95364,52.14679 356.04065,49.52689 365.29564,49.31701 C 377.41287,49.04221 385.91952,52.92268 378.98203,55.56031 C 377.70955,56.0441 374.69196,58.28297 372.27627,60.53556 C 367.35814,65.12165 367.04453,65.23845 365.29838,63.13447 C 364.20356,61.8153 363.6256,61.86895 360.42593,63.58673 C 358.42927,64.65866 349.75969,68.89175 341.16019,72.99358 C 332.5607,77.09541 325.24529,80.90362 324.90374,81.45626 C 324.27896,82.46717 330.36197,91.18282 333.12075,93.22947 C 338.03371,96.87425 326.73693,97.81172 317.08498,94.56021 C 308.85192,91.78669 295.50074,84.39008 293.82068,81.67169 C 293.07445,80.46426 281.29564,80.23723 281.29564,81.43029 C 281.29564,81.8698 279.76483,82.78295 277.89383,83.45951 C 272.3382,85.46845 271.6456,87.06994 274.74133,90.749 C 276.22718,92.51483 277.26543,94.83807 277.09651,96.01908 C 276.39017,100.95754 265.33965,96.44968 252.64603,86.04494 L 246.04133,80.63117 L 237.91849,80.76736 C 233.45092,80.84226 230.80814,81.09855 232.04564,81.33691 C 234.974,81.90093 234.88694,83.78055 231.71007,88.58111 C 230.28801,90.72999 228.87355,94.3592 228.56682,96.64602 C 228.2601,98.93285 227.41716,101.03104 226.69363,101.30869 C 224.05729,102.32035 217.89702,99.25907 209.00948,92.52077 C 204.01158,88.73149 199.15444,85.63117 198.21583,85.63117 C 197.27721,85.63117 190.27369,86.28377 182.65245,87.08138 C 175.0312,87.87899 162.04564,88.84255 153.79564,89.22262 L 138.79564,89.91367 L 134.68459,97.02242 C 132.42351,100.93223 129.5391,106.97553 128.27478,110.45197 C 126.17666,116.22111 126.07725,117.32215 127.13583,123.06727 C 128.86623,132.45845 128.82319,132.63117 124.7528,132.63117 C 121.91395,132.63117 120.21748,131.70282 116.21531,127.95926 z M 125.74097,124.88117 C 124.72979,115.31987 124.78295,115.55038 123.39073,114.68994 C 122.50359,114.14165 122.81836,113.72774 124.44619,113.30205 C 126.737,112.70299 126.74115,112.67608 124.78073,111.13606 C 122.80226,109.58186 122.80231,109.57759 124.79564,109.85392 C 126.17814,110.04557 126.75276,109.59086 126.65675,108.38117 C 126.58036,107.41867 126.96665,106.63117 127.51516,106.63117 C 128.07673,106.63117 128.24124,105.55055 127.89168,104.15781 C 127.37881,102.11437 127.57725,101.78291 129.03327,102.2509 C 130.20368,102.62708 129.95592,102.12177 128.29564,100.74649 C 125.81457,98.69133 126.48675,97.83344 129.22185,99.56441 C 130.29058,100.24077 131.36198,99.34129 133.49625,95.97589 C 136.80239,90.76265 137.07389,90.13117 136.00917,90.13117 C 135.5766,90.13117 134.9016,89.62521 134.50917,89.00681 C 134.11673,88.3884 132.40814,87.58162 130.71231,87.21396 C 128.28301,86.68727 127.62897,86.88187 127.62897,88.13136 C 127.62897,89.16505 128.18027,89.50753 129.21231,89.11496 C 130.45187,88.64345 130.53344,88.77689 129.58802,89.72955 C 128.63977,90.68506 128.00892,90.64409 126.65079,89.53879 C 125.11029,88.28508 124.99756,88.33468 125.61975,89.99251 C 126.14616,91.39513 125.94585,91.71093 124.80698,91.2739 C 123.83065,90.89924 123.29564,91.28462 123.29564,92.36256 C 123.29564,93.5958 123.00293,93.73846 122.17378,92.90932 C 121.00489,91.74042 117.97768,92.30768 118.74643,93.55156 C 119.49638,94.765 106.46381,94.19995 105.22969,92.96551 C 104.34238,92.07799 105.46391,91.91984 109.92998,92.30272 C 114.46844,92.69181 116.24817,92.42968 117.79564,91.14422 C 118.89564,90.23047 119.23314,89.76779 118.54564,90.11603 C 117.85814,90.46428 117.29564,90.20944 117.29564,89.54972 C 117.29564,86.92675 112.94343,79.67806 111.87709,80.52503 C 111.28229,80.99746 109.9167,81.06415 108.84245,80.67323 C 107.21257,80.0801 107.43648,79.85301 110.19515,79.30127 C 112.0134,78.93762 113.90483,78.88964 114.39835,79.19465 C 114.89186,79.49966 115.30253,79.16015 115.31095,78.44019 C 115.32208,77.489 115.59125,77.54121 116.29564,78.63117 C 116.8288,79.45617 117.27191,79.76153 117.28033,79.30974 C 117.28875,78.85796 118.00278,79.19546 118.86707,80.05974 C 120.8046,81.99727 121.72449,82.00836 127.84005,80.16785 C 132.41634,78.79058 135.53682,78.83392 131.91324,80.22442 C 130.63144,80.71629 130.50668,81.18054 131.37512,82.22694 C 132.15185,83.16285 133.04653,83.29968 134.23398,82.66417 C 135.48974,81.99211 135.96231,82.12254 135.96231,83.1412 C 135.96231,83.9123 135.58731,84.31143 135.12897,84.02817 C 134.67064,83.7449 134.29564,83.9897 134.29564,84.57216 C 134.29564,86.08849 140.90373,85.88005 144.0953,84.26305 C 147.04863,82.76675 150.55834,82.91927 151.10785,84.56779 C 151.3171,85.19556 152.05214,85.01753 152.94743,84.12224 C 154.6863,82.38337 156.29564,82.1757 156.29564,83.69019 C 156.29564,84.27265 155.84564,84.47109 155.29564,84.13117 C 154.74564,83.79125 154.29564,83.9147 154.29564,84.40549 C 154.29564,84.89628 155.66335,85.29784 157.33498,85.29784 C 159.29457,85.29784 159.91628,85.00723 159.08498,84.47982 C 158.17155,83.90029 158.14287,83.65733 158.98662,83.64649 C 159.64166,83.63806 160.44357,84.06152 160.76865,84.5875 C 161.09372,85.11348 162.02028,85.29033 162.82767,84.98051 C 163.63505,84.67069 164.29564,84.84814 164.29564,85.37484 C 164.29564,85.9586 166.18659,86.03357 169.13906,85.56684 C 171.80294,85.14574 174.61544,84.83384 175.38906,84.87372 C 176.16268,84.91361 179.04564,84.86846 181.79564,84.77339 C 185.43183,84.64769 186.3865,84.33614 185.29564,83.63117 C 183.41415,82.41526 184.44764,82.3584 187.48054,83.51095 C 188.75385,83.99483 191.93456,84.06596 194.54879,83.66901 C 199.26157,82.95342 201.93086,83.87347 204.79564,87.20088 C 207.24167,90.04192 217.19097,97.07309 221.21399,98.80373 C 226.10747,100.90881 227.25201,100.30002 227.28033,95.57695 C 227.28875,94.17213 228.64564,90.89401 230.29564,88.29223 C 231.94564,85.69045 233.29564,83.35234 233.29564,83.09645 C 233.29564,81.78301 224.79806,82.89398 221.55682,84.63117 C 219.38159,85.79703 216.1508,86.57438 213.81045,86.49499 C 211.19427,86.40625 210.66656,86.21265 212.29564,85.93926 C 216.80696,85.18216 221.29564,83.4936 221.29564,82.55362 C 221.29564,81.5963 217.7988,81.1294 213.04564,81.45209 C 211.53314,81.55477 210.29564,81.18707 210.29564,80.63498 C 210.29564,80.08289 210.85814,79.61541 211.54564,79.59615 C 212.23314,79.57689 219.82219,79.30881 228.4102,79.00043 C 245.99407,78.36902 246.45385,78.48558 254.56242,85.63044 C 260.79545,91.12267 274.19793,98.12888 275.66493,96.66189 C 276.81711,95.5097 273.34817,91.62003 270.04564,90.36106 C 269.08314,89.99415 268.29564,89.01894 268.29564,88.19394 C 268.29564,87.26645 268.87248,86.9153 269.80698,87.2739 C 270.81441,87.66049 271.14117,87.39222 270.78701,86.46929 C 270.44915,85.58884 271.44629,84.58209 273.52567,83.70423 L 276.79564,82.32373 L 271.79564,81.50051 C 269.04564,81.04774 264.88314,80.39465 262.54564,80.0492 C 254.54526,78.86684 258.80999,76.82823 267.79564,77.53961 C 269.44564,77.67024 276.10084,78.08178 282.58498,78.45414 C 290.97515,78.93597 294.62064,79.53106 295.22862,80.51808 C 295.73731,81.34394 297.08257,81.7139 298.55403,81.43261 C 299.91315,81.1728 301.85823,81.56938 302.87643,82.3139 C 304.53284,83.5251 304.36287,83.61045 301.26167,83.12479 C 298.13568,82.63525 298.01638,82.69751 300.04564,83.7594 C 301.28314,84.40697 302.29564,85.24707 302.29564,85.62629 C 302.29564,87.22909 318.22609,93.65054 324.29743,94.49505 C 331.78971,95.53722 333.40311,95.07774 330.11908,92.83712 C 328.84119,91.96524 327.43578,90.66222 326.99595,89.94153 C 326.55612,89.22083 325.77652,88.63117 325.26351,88.63117 C 324.7505,88.63117 322.26574,86.65253 319.74182,84.2342 C 314.89844,79.59342 310.09066,77.9683 308.14398,80.31391 C 307.39023,81.22213 306.64533,81.33635 305.83921,80.66733 C 305.18411,80.12365 302.99181,79.74109 300.96742,79.8172 C 298.94302,79.8933 296.98871,79.65758 296.6245,79.29337 C 296.2603,78.92916 297.72481,78.59674 299.87897,78.55466 C 304.26365,78.46901 305.02931,78.34242 311.04564,76.70838 C 313.38314,76.07352 315.30978,75.23393 315.32706,74.84263 C 315.36182,74.05584 320.29564,70.25306 320.29564,71.01306 C 320.29564,71.27445 319.56707,72.21689 318.67659,73.10736 C 316.22067,75.56328 317.46249,75.78623 321.85021,73.67714 C 324.02019,72.63406 332.32064,68.62916 340.29564,64.77735 C 353.05651,58.61404 362.29564,55.32246 362.29564,56.93952 C 362.29564,57.23152 359.93314,58.23306 357.04564,59.16516 C 354.15814,60.09726 346.17064,63.67879 339.29564,67.12413 C 321.88178,75.85092 321.23447,76.2271 322.06077,77.13997 C 322.46495,77.58649 322.22911,77.62563 321.53669,77.22695 C 319.74849,76.19735 316.29564,77.49626 316.29564,79.19856 C 316.29564,80.70223 317.82934,81.16696 318.54841,79.88117 C 318.7791,79.46867 318.83957,79.67064 318.68277,80.32998 C 318.37757,81.61342 322.05056,83.20959 323.03767,82.22248 C 323.36289,81.89726 323.10397,81.63117 322.46231,81.63117 C 321.82064,81.63117 321.29564,81.15462 321.29564,80.57216 C 321.29564,79.9897 321.71398,79.77169 322.22529,80.08769 C 322.73659,80.4037 325.36809,79.35732 328.07306,77.76241 C 330.77803,76.1675 333.95969,74.55519 335.14342,74.17949 C 336.32714,73.80379 337.29564,73.12551 337.29564,72.67219 C 337.29564,72.21888 338.37158,71.57795 339.68661,71.24789 C 341.00165,70.91784 346.5851,68.54759 352.09428,65.98067 C 358.9095,62.80523 361.94649,60.88488 361.59632,59.97236 C 360.82531,57.96313 362.73743,58.35688 364.79564,60.63117 C 367.14146,63.22328 367.59672,63.16615 370.96872,59.85662 C 372.52352,58.33061 375.12958,56.12839 376.75994,54.96279 L 379.72424,52.84352 L 375.75994,51.74293 C 370.34487,50.23956 363.682,50.35232 349.13738,52.19348 C 336.19621,53.83167 323.54632,56.49545 316.79564,59.00391 C 312.21943,60.70436 313.13051,61.11251 318.23479,59.64862 C 320.90997,58.88139 321.3963,58.93051 320.45405,59.87277 C 319.79037,60.53645 317.12072,61.16152 314.5215,61.26181 C 308.06883,61.51081 308.09882,61.5037 308.78856,62.61972 C 309.1347,63.17979 308.74766,63.35812 307.89561,63.03116 C 307.06847,62.71376 304.13312,63.68334 301.37262,65.18579 L 296.35353,67.91752 L 285.08859,66.18812 C 278.89287,65.23695 272.01734,63.82907 269.80964,63.0595 C 267.60194,62.28993 264.78314,61.65373 263.54564,61.64573 C 262.30814,61.63772 261.29564,61.15085 261.29564,60.56379 C 261.29564,59.97672 262.08314,59.72773 263.04564,60.01047 C 264.00814,60.29321 266.48314,60.77353 268.54564,61.07786 C 270.60814,61.38218 273.97687,61.89649 276.03172,62.22077 C 279.58944,62.78223 279.69165,62.72256 278.17274,60.97077 C 275.63852,58.048 275.34555,54.96267 276.98779,48.49158 C 278.02122,44.41943 278.19038,42.125913 277.50765,41.443179 C 275.99997,39.935508 266.88376,42.89074 259.79564,47.18493 C 256.49564,49.18416 251.62409,51.92727 248.96997,53.28073 C 243.50375,56.0682 244.32366,56.14654 219.98205,50.51091 C 212.93457,48.87926 204.83457,47.32607 201.98205,47.05937 C 199.12952,46.79267 194.63354,45.86789 191.99097,45.00429 C 189.34839,44.1407 185.48618,43.36596 183.40826,43.28265 C 181.09616,43.18995 179.62998,42.637317 179.6296,41.858395 C 179.6288,40.226425 183.33305,39.299986 187.78226,39.819405 C 191.25217,40.224498 191.25724,40.219181 189.34616,38.178494 C 186.63124,35.279454 185.64633,32.169981 184.81756,23.881174 C 184.15144,17.219089 183.90825,16.631174 181.81858,16.631174 C 178.27877,16.631174 169.48341,21.012858 161.79564,26.606229 C 144.54262,39.158955 145.81597,38.57598 133.24059,39.679515 C 114.00503,41.367504 95.780669,44.8898 68.295639,52.2317 C 34.534828,61.25001 23.451531,65.14282 20.813682,68.90888 C 19.465123,70.83421 19.579975,71.12587 22.350073,72.81047 C 25.723964,74.86226 26.700202,75.09479 25.795639,73.63117 C 25.45572,73.08117 25.927308,72.63117 26.843611,72.63117 C 27.913662,72.63117 28.303715,73.16775 27.934013,74.13117 C 27.539535,75.15916 27.993504,75.63117 29.376684,75.63117 C 30.486735,75.63117 32.610112,76.24299 34.095299,76.99077 C 36.06521,77.98261 38.418611,78.14068 42.795639,77.57516 C 51.082401,76.50448 57.295639,76.46652 57.295639,77.48657 C 57.295639,77.95704 54.358995,78.61619 50.769763,78.95136 C 47.180531,79.28653 43.468031,80.03163 42.519763,80.60715 C 41.194892,81.41124 41.779806,81.55505 45.045639,81.22819 C 47.425624,80.98999 49.295639,81.23104 49.295639,81.77602 C 49.295639,82.31127 49.633139,82.55992 50.045639,82.32857 C 50.458139,82.09722 53.369635,82.20539 56.515631,82.56894 C 61.136242,83.10291 62.34783,82.93755 62.819426,81.70859 C 63.196904,80.7249 63.649278,80.56467 64.099434,81.25523 C 64.482347,81.84263 66.145639,82.63119 67.795639,83.00758 C 69.669477,83.43503 70.294671,83.35722 69.461104,82.80029 C 68.438364,82.11697 68.627882,81.77755 70.272276,81.34753 C 71.619891,80.99512 72.620998,81.31547 72.963799,82.2088 C 73.263999,82.9911 74.001472,83.63117 74.602628,83.63117 C 75.333871,83.63117 75.29846,83.23399 74.495639,82.43117 C 73.835639,81.77117 73.295639,80.87117 73.295639,80.43117 C 73.295639,79.60531 75.410786,79.74632 76.295639,80.63117 C 76.570639,80.90617 78.190649,81.62911 79.895662,82.2377 C 82.290669,83.09258 83.582181,83.03693 85.574559,81.99302 C 88.642799,80.3854 93.295639,80.56462 93.295639,82.29042 C 93.295639,84.57985 103.14686,107.78848 106.39003,113.13969 C 112.48117,123.19002 121.01982,131.61589 125.12523,131.62743 C 126.1707,131.63037 126.30228,130.18872 125.74097,124.88117 z M 101.29564,91.19019 C 101.29564,90.94765 101.74564,90.47109 102.29564,90.13117 C 102.84564,89.79125 103.29564,89.9897 103.29564,90.57216 C 103.29564,91.15462 102.84564,91.63117 102.29564,91.63117 C 101.74564,91.63117 101.29564,91.43273 101.29564,91.19019 z M 137.29564,83.59979 C 137.29564,83.06705 137.97064,82.63117 138.79564,82.63117 C 140.71631,82.63117 140.71631,83.25577 138.79564,83.9928 C 137.97064,84.30938 137.29564,84.13253 137.29564,83.59979 z M 140.9463,82.1632 C 140.63648,81.35581 140.71992,80.48699 141.13173,80.23248 C 141.54354,79.97797 141.94592,80.63855 142.02591,81.70045 C 142.1989,83.99702 141.72753,84.19906 140.9463,82.1632 z M 81.326048,74.5723 C 81.308161,70.71427 81.832273,67.27954 82.598833,66.23121 C 83.704378,64.71929 83.838733,65.48654 83.484702,71.29008 C 82.914461,80.63791 81.365092,82.99372 81.326048,74.5723 z M 85.066401,80.06928 C 84.278121,78.79381 86.373429,64.63117 87.350409,64.63117 C 87.735169,64.63117 87.829129,66.76867 87.559229,69.38117 C 86.789579,76.83087 85.769089,81.20626 85.066401,80.06928 z M 249.29564,79.63117 C 249.29564,79.08117 250.53314,78.6628 252.04564,78.70146 C 254.48248,78.76374 254.56789,78.86961 252.79564,79.63117 C 250.06426,80.80489 249.29564,80.80489 249.29564,79.63117 z M 88.295639,78.49647 C 88.295639,75.20497 90.766679,64.63117 91.535879,64.63117 C 92.027869,64.63117 92.201829,65.41867 91.922439,66.38117 C 91.643049,67.34367 91.110879,70.71867 90.739829,73.88117 C 90.368779,77.04367 89.667039,79.63117 89.180419,79.63117 C 88.693789,79.63117 88.295639,79.12056 88.295639,78.49647 z M 92.721899,74.13117 C 93.157809,69.01876 94.975769,62.97797 95.823349,63.82555 C 96.082809,64.08501 95.395199,67.63492 94.295339,71.71423 C 92.407109,78.71749 92.319349,78.85229 92.721899,74.13117 z M 95.295639,75.96907 C 95.295639,73.15313 98.606209,63.63117 99.585249,63.63117 C 100.09365,63.63117 100.24419,64.32286 99.919779,65.16826 C 99.595369,66.01365 98.615299,69.16365 97.741839,72.16826 C 96.134649,77.69677 95.295639,79.0004 95.295639,75.96907 z M 35.736769,70.13117 C 33.815262,68.64634 33.815262,68.61601 35.736769,67.13117 C 38.121852,65.28811 40.232717,65.26797 42.603652,67.06564 C 44.324772,68.37062 44.302064,68.51327 42.131145,70.03384 C 39.301083,72.01609 38.197746,72.03288 35.736769,70.13117 z M 329.79564,56.63117 C 330.59532,55.33727 332.29564,55.33727 332.29564,56.63117 C 332.29564,57.18117 331.59408,57.63117 330.73662,57.63117 C 329.87916,57.63117 329.45572,57.18117 329.79564,56.63117 z M 365.29564,56.89418 C 366.67064,56.63863 368.08283,55.96726 368.43384,55.40224 C 368.78484,54.83723 369.57969,54.68869 370.20015,55.07216 C 372.24009,56.33291 370.24633,57.63371 366.48662,57.49499 C 363.71038,57.39256 363.41522,57.24366 365.29564,56.89418 z M 336.29564,55.63117 C 336.29564,55.08117 336.97064,54.63117 337.79564,54.63117 C 338.62064,54.63117 339.29564,55.08117 339.29564,55.63117 C 339.29564,56.18117 338.62064,56.63117 337.79564,56.63117 C 336.97064,56.63117 336.29564,56.18117 336.29564,55.63117 z M 343.97658,54.70239 C 347.34781,53.22514 362.46586,52.32127 365.29564,53.42777 C 367.28877,54.20713 366.27504,54.42179 360.29564,54.48652 C 356.17064,54.53117 350.32064,54.81303 347.29564,55.11288 C 343.32457,55.50651 342.40191,55.3924 343.97658,54.70239 z M 166.54564,41.907778 C 164.75814,41.685952 163.29564,41.104347 163.29564,40.615324 C 163.29564,40.126301 164.75814,39.963037 166.54564,40.252517 C 168.33314,40.541997 171.14564,40.748751 172.79564,40.711972 C 174.44564,40.675192 176.47064,41.085076 177.29564,41.622824 C 178.84355,42.631779 173.51737,42.77296 166.54564,41.907778 z M 157.89865,40.797841 C 157.61538,40.339507 158.03882,39.964507 158.83963,39.964507 C 159.64043,39.964507 160.29564,40.339507 160.29564,40.797841 C 160.29564,41.877845 158.56613,41.877845 157.89865,40.797841 z M 153.29564,35.377568 C 155.77064,34.192914 157.94564,32.865344 158.12897,32.427413 C 158.31231,31.989481 158.90136,31.631174 159.43799,31.631174 C 159.97462,31.631174 160.20213,31.973467 159.94357,32.391825 C 159.68501,32.810183 162.02095,33.273724 165.13455,33.421916 C 170.88557,33.695636 176.29564,35.252935 176.29564,36.634656 C 176.29564,37.053119 174.60814,36.793277 172.54564,36.057229 C 167.62836,34.302391 163.03106,34.323311 156.29564,36.131174 C 148.80216,38.14251 147.96069,37.931132 153.29564,35.377568 z M 149.29564,84.66256 C 149.29564,84.12982 148.62064,83.95296 147.79564,84.26955 C 145.87497,85.00658 145.87497,85.63117 147.79564,85.63117 C 148.62064,85.63117 149.29564,85.1953 149.29564,84.66256 z " id="path2161"/>
  <metadata>
    <rdf:RDF>
      <cc:Work>
        <dc:format>image/svg+xml</dc:format>
        <dc:type rdf:resource="http://purl.org/dc/dcmitype/StillImage"/>
        <cc:license rdf:resource="http://creativecommons.org/licenses/publicdomain/"/>
        <dc:publisher>
          <cc:Agent rdf:about="http://openclipart.org/">
            <dc:title>Open Clip Art Library</dc:title>
          </cc:Agent>
        </dc:publisher>
        <dc:title>lemon shark</dc:title>
        <dc:date>2006-11-29T12:23:27</dc:date>
        <dc:description>lemon shark</dc:description>
        <dc:source>http://openclipart.org/detail/1670/lemon-shark-by-molumen</dc:source>
        <dc:creator>
          <cc:Agent>
            <dc:title>molumen</dc:title>
          </cc:Agent>
        </dc:creator>
        <dc:subject>
          <rdf:Bag>
            <rdf:li>animal</rdf:li>
            <rdf:li>clip art</rdf:li>
            <rdf:li>clipart</rdf:li>
            <rdf:li>coloring book</rdf:li>
            <rdf:li>danger</rdf:li>
            <rdf:li>fish</rdf:li>
            <rdf:li>kill</rdf:li>
            <rdf:li>lemon</rdf:li>
            <rdf:li>line art</rdf:li>
            <rdf:li>sea</rdf:li>
            <rdf:li>shark</rdf:li>
            <rdf:li>swim</rdf:li>
            <rdf:li>water</rdf:li>
            <rdf:li>white</rdf:li>
          </rdf:Bag>
        </dc:subject>
      </cc:Work>
      <cc:License rdf:about="http://creativecommons.org/licenses/publicdomain/">
        <cc:permits rdf:resource="http://creativecommons.org/ns#Reproduction"/>
        <cc:permits rdf:resource="http://creativecommons.org/ns#Distribution"/>
        <cc:permits rdf:resource="http://creativecommons.org/ns#DerivativeWorks"/>
      </cc:License>
    </rdf:RDF>
  </metadata>
</svg>
